# xmcd
#
# Track frame offsets:
#	150
#	16578
#	28773
#	46210
#	58150
#	78234
#	99106
#	117443
#	133254
#	149651
#	168033
#	189581
#	210316
#	227481
#	244967
#
# Disc length: 3507 seconds
#
# Revision: 0
# Processed by: cddbd v1.5.2PL0 Copyright (c) Steve Scherf et al.
# Submitted via: dBpowerAMP V4.0
#
DISCID=c20db10f
DTITLE=AMEUR - LAILA
DYEAR=2006
DGENRE=Club
TTITLE0=AKON FEAT EMINEM
TTITLE1=LAILA ZIK
TTITLE2=LAILA ZIK 2
TTITLE3=LAILA ZIK4
TTITLE4=LAILA ZIK5
TTITLE5=LAILA ZIK 6
TTITLE6=LAILA ZIK 7
TTITLE7=LAILA ZIK8
TTITLE8=LAILA ZIK 9
TTITLE9=LAILA ZIK 10
TTITLE10=LAILA ZIK 11
TTITLE11=LAILA ZIK 12
TTITLE12=LAILA ZIK 13
TTITLE13=LAILA ZIK 14
TTITLE14=LAILA ZIK 15
EXTD=ZIDANE
EXTT0=
EXTT1=
EXTT2=
EXTT3=
EXTT4=
EXTT5=
EXTT6=
EXTT7=
EXTT8=
EXTT9=
EXTT10=
EXTT11=
EXTT12=
EXTT13=
EXTT14=
PLAYORDER=
